<svg width="744" height="284" viewBox="0 0 744 284" fill="none" xmlns="http://www.w3.org/2000/svg">
<mask id="mask0_3297_29521" style="mask-type:luminance" maskUnits="userSpaceOnUse" x="0" y="28" width="231" height="232">
<path d="M0 28.4004H230.667V259.4H0V28.4004Z" fill="white"/>
</mask>
<g mask="url(#mask0_3297_29521)">
<path d="M226.48 162.067C225.839 161.427 225.141 160.849 224.386 160.343C223.631 159.838 222.834 159.416 221.995 159.067C221.157 158.718 220.292 158.458 219.401 158.276C218.511 158.099 217.61 158.01 216.704 158.01C215.797 158.01 214.896 158.099 214.006 158.276C213.115 158.458 212.25 158.718 211.412 159.067C210.573 159.416 209.776 159.838 209.021 160.343C208.266 160.849 207.568 161.427 206.928 162.067L133.422 235.604C132.782 236.244 132.209 236.942 131.709 237.697C131.204 238.453 130.776 239.25 130.433 240.088C130.084 240.932 129.823 241.796 129.646 242.687C129.469 243.572 129.381 244.474 129.381 245.38C129.381 246.291 129.469 247.187 129.651 248.078C129.829 248.968 130.089 249.833 130.438 250.671C130.782 251.51 131.209 252.307 131.714 253.062C132.219 253.817 132.792 254.515 133.433 255.156C134.073 255.802 134.771 256.375 135.526 256.88C136.282 257.38 137.079 257.807 137.917 258.156C138.756 258.505 139.62 258.765 140.506 258.942C141.396 259.119 142.297 259.208 143.204 259.208C144.11 259.208 145.011 259.119 145.901 258.947C146.792 258.77 147.657 258.505 148.495 258.161C149.334 257.812 150.131 257.385 150.886 256.885C151.636 256.38 152.339 255.807 152.98 255.166L226.48 181.63C227.125 180.989 227.698 180.291 228.204 179.536C228.709 178.781 229.136 177.984 229.48 177.145C229.829 176.307 230.094 175.437 230.271 174.546C230.448 173.656 230.537 172.76 230.537 171.849C230.537 170.942 230.448 170.041 230.271 169.151C230.094 168.26 229.829 167.395 229.48 166.557C229.136 165.713 228.709 164.916 228.204 164.161C227.698 163.406 227.125 162.708 226.48 162.067ZM216.73 162.817C217.938 162.812 219.094 163.046 220.209 163.515H220.266C220.506 163.619 220.75 163.744 220.995 163.875H221.053C221.292 164.005 221.516 164.14 221.735 164.286C222.683 164.937 223.48 165.734 224.125 166.677C224.276 166.901 224.412 167.125 224.537 167.359C224.558 167.38 224.568 167.401 224.579 167.427C224.709 167.661 224.823 167.906 224.928 168.151V168.213C225.172 168.802 225.355 169.411 225.469 170.036C225.584 170.661 225.636 171.291 225.615 171.927C225.599 172.562 225.511 173.192 225.36 173.812C225.204 174.427 224.99 175.02 224.709 175.593C224.428 176.166 224.094 176.703 223.698 177.203C223.303 177.703 222.86 178.156 222.37 178.557C221.881 178.963 221.355 179.312 220.787 179.604C220.224 179.901 219.631 180.13 219.021 180.296C218.407 180.463 217.782 180.562 217.146 180.593C216.511 180.625 215.875 180.593 215.25 180.489C214.62 180.39 214.011 180.224 213.417 179.989C212.823 179.755 212.266 179.463 211.735 179.114C211.204 178.76 210.719 178.359 210.271 177.901C209.829 177.442 209.438 176.947 209.099 176.406C208.766 175.869 208.485 175.296 208.271 174.697C208.053 174.099 207.907 173.484 207.818 172.854C207.735 172.224 207.719 171.593 207.766 170.958C207.818 170.322 207.933 169.697 208.12 169.088C208.303 168.479 208.547 167.895 208.855 167.338C209.162 166.781 209.526 166.265 209.943 165.786C210.36 165.302 210.823 164.875 211.334 164.494C211.844 164.114 212.391 163.791 212.969 163.526C213.547 163.26 214.146 163.062 214.766 162.927C215.391 162.791 216.021 162.718 216.657 162.718L216.73 162.817ZM149.599 251.791C149.178 252.213 148.719 252.588 148.224 252.916C147.73 253.25 147.209 253.526 146.662 253.755C146.11 253.979 145.542 254.151 144.959 254.27C144.381 254.385 143.787 254.442 143.193 254.442C142.599 254.442 142.011 254.385 141.428 254.265C140.844 254.151 140.282 253.979 139.73 253.75C139.183 253.526 138.662 253.244 138.167 252.916C137.672 252.583 137.214 252.208 136.792 251.786C136.375 251.364 136 250.911 135.667 250.416C135.339 249.921 135.058 249.395 134.834 248.849C134.605 248.296 134.433 247.734 134.318 247.151C134.204 246.567 134.141 245.974 134.141 245.38C134.146 244.786 134.204 244.197 134.318 243.614C134.433 243.031 134.605 242.463 134.834 241.916C135.063 241.364 135.339 240.843 135.672 240.349C136 239.854 136.375 239.395 136.797 238.979L203.042 172.703C203.099 173.526 203.224 174.338 203.428 175.14C203.631 175.942 203.901 176.718 204.24 177.474C204.584 178.224 204.99 178.937 205.459 179.619C205.928 180.296 206.454 180.927 207.037 181.515C207.62 182.099 208.256 182.625 208.933 183.099C209.61 183.567 210.323 183.974 211.079 184.312C211.829 184.656 212.605 184.927 213.407 185.13C214.209 185.333 215.021 185.463 215.844 185.515L149.599 251.791ZM213.495 110.713C212.855 110.072 212.157 109.5 211.401 108.994C210.646 108.489 209.849 108.062 209.011 107.713C208.172 107.369 207.308 107.104 206.417 106.927C205.526 106.75 204.631 106.661 203.719 106.661C202.813 106.661 201.917 106.75 201.026 106.927C200.136 107.104 199.271 107.369 198.433 107.713C197.594 108.062 196.797 108.489 196.042 108.994C195.287 109.5 194.589 110.072 193.948 110.713L83.0786 221.635C82.4327 222.276 81.865 222.974 81.3598 223.729C80.8546 224.484 80.4275 225.281 80.0838 226.119C79.7348 226.963 79.4744 227.828 79.2973 228.718C79.1202 229.609 79.0317 230.505 79.0317 231.416C79.0317 232.322 79.1202 233.224 79.2973 234.114C79.4744 235.005 79.74 235.869 80.0838 236.708C80.4327 237.546 80.8598 238.343 81.3598 239.099C81.865 239.854 82.4379 240.552 83.0838 241.192C83.7244 241.833 84.4223 242.406 85.1775 242.911C85.9327 243.416 86.7296 243.843 87.5682 244.192C88.4067 244.536 89.2661 244.802 90.1567 244.979C91.0473 245.156 91.9484 245.244 92.8546 245.244C93.7609 245.244 94.6619 245.156 95.5525 244.979C96.4432 244.802 97.3077 244.541 98.1463 244.192C98.9848 243.843 99.7817 243.421 100.537 242.916C101.292 242.411 101.99 241.838 102.631 241.197L213.495 130.276C214.136 129.635 214.709 128.937 215.214 128.182C215.719 127.427 216.146 126.63 216.495 125.791C216.844 124.953 217.105 124.083 217.282 123.192C217.459 122.302 217.547 121.406 217.547 120.494C217.547 119.588 217.459 118.687 217.282 117.796C217.105 116.906 216.844 116.041 216.495 115.203C216.146 114.359 215.719 113.562 215.214 112.807C214.709 112.052 214.136 111.354 213.495 110.713ZM203.74 111.463C205.23 111.463 206.631 111.812 207.943 112.51C209.261 113.208 210.334 114.171 211.167 115.406C211.318 115.625 211.454 115.849 211.584 116.088L211.625 116.145C211.756 116.39 211.87 116.635 211.974 116.875V116.932C212.443 118.046 212.683 119.208 212.683 120.416C212.683 121 212.625 121.583 212.511 122.161C212.396 122.734 212.224 123.296 212 123.838C211.776 124.38 211.5 124.895 211.172 125.385C210.849 125.869 210.48 126.322 210.063 126.739C209.646 127.156 209.198 127.526 208.709 127.849C208.219 128.177 207.704 128.453 207.162 128.677C206.62 128.901 206.063 129.072 205.485 129.187C204.912 129.302 204.329 129.359 203.74 129.359C203.157 129.359 202.573 129.302 201.995 129.187C201.422 129.072 200.865 128.901 200.318 128.677C199.776 128.453 199.261 128.177 198.776 127.849C198.287 127.526 197.834 127.156 197.422 126.739C197.006 126.322 196.636 125.869 196.308 125.385C195.98 124.895 195.709 124.38 195.48 123.838C195.256 123.296 195.089 122.734 194.974 122.161C194.86 121.583 194.803 121 194.803 120.416C194.803 119.828 194.86 119.244 194.974 118.671C195.089 118.093 195.256 117.536 195.48 116.989C195.709 116.447 195.98 115.932 196.308 115.442C196.636 114.958 197.006 114.505 197.422 114.088C197.834 113.677 198.287 113.302 198.776 112.979C199.261 112.651 199.776 112.375 200.318 112.151C200.865 111.927 201.422 111.755 201.995 111.64C202.573 111.526 203.157 111.468 203.74 111.468V111.463ZM99.2244 237.812C98.8077 238.234 98.3494 238.609 97.8546 238.942C97.3598 239.27 96.839 239.552 96.2869 239.781C95.74 240.005 95.1723 240.177 94.589 240.296C94.0057 240.411 93.4171 240.468 92.8234 240.468C92.2296 240.468 91.6411 240.411 91.0577 240.296C90.4744 240.182 89.9067 240.01 89.3598 239.781C88.8077 239.552 88.2869 239.276 87.7921 238.942C87.2973 238.614 86.839 238.239 86.4223 237.817C86.0005 237.401 85.6254 236.942 85.2921 236.447C84.964 235.953 84.6827 235.432 84.4588 234.88C84.2296 234.333 84.0577 233.765 83.9432 233.182C83.8234 232.599 83.7661 232.01 83.7661 231.416C83.7661 230.817 83.8234 230.229 83.9432 229.645C84.0577 229.062 84.2296 228.5 84.4536 227.947C84.6827 227.401 84.9588 226.875 85.2921 226.38C85.6202 225.885 85.9952 225.427 86.4171 225.01L190.063 121.359C190.12 122.182 190.25 122.994 190.448 123.791C190.651 124.593 190.922 125.369 191.266 126.119C191.61 126.875 192.011 127.588 192.485 128.265C192.954 128.947 193.48 129.578 194.063 130.161C194.646 130.744 195.276 131.27 195.959 131.744C196.636 132.213 197.349 132.619 198.099 132.958C198.855 133.302 199.631 133.572 200.428 133.776C201.23 133.979 202.042 134.109 202.865 134.161L99.2244 237.812ZM147.516 66.3694C148.157 65.7235 148.73 65.0256 149.235 64.2704C149.74 63.5152 150.162 62.7183 150.511 61.8798C150.86 61.0412 151.12 60.1766 151.297 59.286C151.474 58.3954 151.563 57.4944 151.563 56.5881C151.563 55.6819 151.474 54.7808 151.297 53.8902C151.12 52.9996 150.855 52.135 150.506 51.2964C150.162 50.4579 149.735 49.661 149.23 48.9058C148.724 48.1506 148.151 47.4527 147.511 46.8121C146.87 46.1714 146.172 45.5985 145.417 45.0933C144.662 44.5881 143.865 44.161 143.026 43.8121C142.188 43.4683 141.323 43.2027 140.433 43.0256C139.547 42.8485 138.646 42.76 137.74 42.76C136.829 42.76 135.933 42.8485 135.042 43.0256C134.151 43.2027 133.287 43.4631 132.448 43.8121C131.61 44.1558 130.813 44.5829 130.058 45.0881C129.303 45.5933 128.605 46.1662 127.964 46.8069L17.1463 157.671C16.5057 158.312 15.9327 159.01 15.4275 159.765C14.9223 160.52 14.5004 161.317 14.1515 162.156C13.8025 162.994 13.5421 163.859 13.365 164.75C13.1879 165.64 13.0994 166.541 13.0994 167.453C13.0994 168.359 13.1879 169.26 13.365 170.151C13.5421 171.041 13.8025 171.906 14.1515 172.744C14.5004 173.583 14.9223 174.38 15.4275 175.135C15.9327 175.89 16.5057 176.588 17.1463 177.234C17.7921 177.875 18.49 178.447 19.2452 178.953C20.0004 179.458 20.7973 179.885 21.6359 180.229C22.4744 180.578 23.339 180.838 24.2296 181.015C25.1202 181.192 26.0161 181.281 26.9275 181.281C27.8338 181.281 28.7348 181.192 29.6254 181.015C30.5161 180.838 31.3807 180.578 32.2192 180.229C33.0577 179.885 33.8546 179.458 34.6098 178.953C35.365 178.447 36.0629 177.875 36.7036 177.234L147.516 66.3694ZM137.766 47.5516C138.349 47.5569 138.933 47.6141 139.506 47.7339C140.079 47.8485 140.641 48.0204 141.178 48.2496C141.719 48.4735 142.235 48.7548 142.719 49.0829C143.209 49.411 143.657 49.7808 144.068 50.1975C144.485 50.6141 144.849 51.0673 145.178 51.5569C145.5 52.0464 145.771 52.5621 145.995 53.1037C146.219 53.6454 146.386 54.2027 146.495 54.7808C146.61 55.3589 146.667 55.9371 146.662 56.5256C146.662 57.1089 146.605 57.6923 146.485 58.2652C146.37 58.8433 146.198 59.4006 145.974 59.9423C145.75 60.4839 145.474 60.9996 145.146 61.4839C144.818 61.9735 144.448 62.4214 144.032 62.8381C143.615 63.2496 143.162 63.6194 142.678 63.9423C142.188 64.2704 141.672 64.5412 141.131 64.7652C140.589 64.9891 140.026 65.161 139.454 65.2704C138.875 65.385 138.297 65.4423 137.709 65.4423C137.125 65.4423 136.542 65.3798 135.969 65.2652C135.391 65.1506 134.834 64.9839 134.292 64.7548C133.75 64.5308 133.24 64.2548 132.75 63.9319C132.261 63.6037 131.813 63.2339 131.396 62.8173C130.985 62.4006 130.615 61.9527 130.287 61.4631C129.964 60.9735 129.688 60.4579 129.464 59.9162C129.24 59.3746 129.068 58.8173 128.954 58.2391C128.839 57.6662 128.782 57.0829 128.782 56.4996C128.787 55.9058 128.849 55.3225 128.964 54.7496C129.084 54.1714 129.256 53.6089 129.485 53.0673C129.714 52.5204 129.99 52.0048 130.323 51.5152C130.651 51.0308 131.026 50.5777 131.443 50.161C131.86 49.7444 132.318 49.3746 132.808 49.0516C133.297 48.7235 133.818 48.4527 134.36 48.2287C134.907 48.0048 135.469 47.8329 136.047 47.7235C136.625 47.6089 137.209 47.5516 137.797 47.5516H137.766ZM26.9275 176.51C26.0317 176.505 25.1567 176.375 24.3025 176.114C23.4484 175.854 22.6515 175.474 21.9067 174.979C21.1671 174.479 20.5109 173.885 19.9432 173.192C19.3754 172.5 18.9223 171.744 18.5786 170.916C18.24 170.088 18.0265 169.234 17.9379 168.343C17.8494 167.453 17.8911 166.572 18.0629 165.692C18.2348 164.817 18.5317 163.984 18.9536 163.192C19.3754 162.406 19.9015 161.692 20.5317 161.062L124.079 57.4475C124.136 58.2704 124.266 59.0829 124.474 59.8798C124.678 60.6819 124.948 61.4579 125.292 62.2079C125.636 62.9579 126.042 63.6714 126.511 64.3485C126.98 65.0256 127.506 65.6558 128.089 66.2391C128.672 66.8225 129.303 67.3537 129.98 67.8225C130.657 68.2912 131.37 68.6975 132.12 69.0412C132.87 69.385 133.646 69.6558 134.448 69.8589C135.245 70.0673 136.058 70.1975 136.881 70.2548L33.3234 173.859C32.4744 174.708 31.4952 175.364 30.3859 175.822C29.2817 176.281 28.1254 176.51 26.9275 176.51ZM23.5682 125.739L97.1046 52.1714C97.7869 51.5412 98.3963 50.8433 98.9327 50.0881C99.4744 49.3329 99.9327 48.5308 100.313 47.6819C100.688 46.8329 100.98 45.9527 101.183 45.0464C101.381 44.1402 101.49 43.2235 101.511 42.2964C101.526 41.3641 101.448 40.4423 101.276 39.5308C101.11 38.6141 100.849 37.7287 100.5 36.8694C100.151 36.0048 99.7244 35.1871 99.2088 34.411C98.6984 33.6402 98.1098 32.9214 97.4536 32.2652C96.7973 31.6089 96.0786 31.0256 95.3025 30.5152C94.5317 30.0048 93.7088 29.5725 92.8494 29.2287C91.99 28.8798 91.0994 28.6246 90.188 28.4579C89.2713 28.286 88.3494 28.2131 87.4223 28.2339C86.4952 28.2496 85.5786 28.3589 84.6723 28.5621C83.7661 28.7652 82.8859 29.0569 82.0421 29.4371C81.1932 29.8173 80.3911 30.2808 79.6359 30.8225C78.8807 31.3641 78.1879 31.9787 77.5577 32.6558L4.06294 106.177C3.45357 106.822 2.9119 107.526 2.43794 108.276C1.96399 109.031 1.56294 109.817 1.24003 110.651C0.922318 111.479 0.682736 112.328 0.521277 113.203C0.365028 114.083 0.29211 114.963 0.307736 115.854C0.318152 116.739 0.41711 117.619 0.599402 118.494C0.781694 119.364 1.04732 120.208 1.39107 121.026C1.73482 121.849 2.15669 122.625 2.65149 123.364C3.15149 124.104 3.70878 124.786 4.33899 125.416C4.96919 126.046 5.65149 126.609 6.38586 127.109C7.12024 127.604 7.90149 128.031 8.71919 128.375C9.5369 128.724 10.3807 128.989 11.2504 129.177C12.1202 129.359 13.0004 129.458 13.8911 129.474C14.7765 129.489 15.6619 129.421 16.5369 129.265C17.4119 129.109 18.2609 128.869 19.0942 128.552C19.9223 128.229 20.714 127.833 21.4692 127.359C22.2192 126.89 22.9223 126.349 23.5682 125.739ZM87.3859 33.3798C88.2921 33.3798 89.1775 33.51 90.0421 33.7808H90.1255L90.8546 34.0464L91.0109 34.1194C91.2192 34.2131 91.4327 34.3173 91.6359 34.4214L91.813 34.5256C92.0109 34.6298 92.1984 34.7496 92.3807 34.8798L92.5525 34.9996C92.74 35.1298 92.9171 35.26 93.089 35.4006L93.2088 35.51C93.74 35.9631 94.2036 36.4735 94.615 37.036C95.0213 37.5985 95.3598 38.2027 95.6307 38.8433C95.8963 39.4839 96.089 40.1454 96.2036 40.8329C96.3182 41.5204 96.3494 42.2079 96.3025 42.9058C96.2557 43.5985 96.1255 44.2756 95.9223 44.9423C95.714 45.6037 95.438 46.2391 95.0838 46.8381C94.7296 47.4371 94.313 47.9839 93.8338 48.4891C93.3494 48.9891 92.8182 49.4266 92.2348 49.8069C91.6515 50.1819 91.0317 50.4891 90.3755 50.7183C89.7192 50.9527 89.0473 51.1089 88.3546 51.1819C87.6671 51.26 86.9744 51.2548 86.2869 51.1714C85.5942 51.0829 84.9223 50.9214 84.2713 50.6766C83.6202 50.4371 83.0057 50.1246 82.4275 49.7391C81.8494 49.3537 81.3234 48.9058 80.8494 48.3954C80.3754 47.8902 79.964 47.3329 79.6202 46.7287C79.2765 46.1246 79.0057 45.4891 78.8077 44.8225C78.6098 44.1558 78.4952 43.4735 78.4536 42.7808C78.4171 42.0881 78.4588 41.3954 78.5838 40.7131C78.7036 40.0256 78.9067 39.3641 79.1827 38.7287C79.4588 38.0881 79.8077 37.4944 80.2244 36.9371C80.6411 36.3798 81.115 35.8798 81.6463 35.4319C82.1827 34.9839 82.7557 34.6089 83.3807 34.2964C84.0004 33.9839 84.6515 33.7496 85.3286 33.5881C86.0057 33.4266 86.688 33.3485 87.3859 33.3485V33.3798ZM4.77128 115.958C4.76607 114.755 4.99524 113.599 5.45357 112.484C5.91711 111.375 6.57336 110.395 7.42753 109.552L73.6723 43.2756C73.7296 44.0985 73.8598 44.911 74.0629 45.7131C74.2609 46.5152 74.5369 47.2912 74.8754 48.0412C75.2192 48.7912 75.6254 49.51 76.0942 50.1871C76.5629 50.8641 77.089 51.4944 77.6723 52.0829C78.2557 52.6662 78.8911 53.1923 79.5682 53.661C80.2452 54.1298 80.9588 54.536 81.7088 54.8798C82.464 55.2235 83.24 55.4944 84.0369 55.6975C84.839 55.8954 85.6515 56.0256 86.4744 56.0829L20.2296 122.359C19.5942 122.984 18.8859 123.51 18.0942 123.927C17.3077 124.349 16.4744 124.64 15.5994 124.812C14.7192 124.989 13.839 125.031 12.9536 124.942C12.0629 124.854 11.2036 124.635 10.3807 124.296C9.55774 123.953 8.79732 123.5 8.10982 122.932C7.41711 122.369 6.82336 121.713 6.32336 120.974C5.82857 120.229 5.44836 119.432 5.18794 118.578C4.92232 117.724 4.79211 116.854 4.7869 115.958H4.77128ZM122.615 136.567C123.256 137.213 123.954 137.786 124.709 138.291C125.464 138.796 126.261 139.218 127.099 139.567C127.938 139.916 128.803 140.177 129.693 140.354C130.584 140.531 131.48 140.619 132.391 140.619C133.297 140.619 134.193 140.531 135.084 140.354C135.974 140.177 136.839 139.916 137.678 139.567C138.516 139.218 139.313 138.796 140.068 138.291C140.823 137.786 141.521 137.213 142.162 136.567L198.964 79.7496C199.579 79.1037 200.131 78.4058 200.61 77.6506C201.094 76.9006 201.5 76.1089 201.829 75.2756C202.157 74.4475 202.401 73.5881 202.563 72.7131C202.724 71.8329 202.803 70.9475 202.792 70.0516C202.782 69.1558 202.688 68.2756 202.506 67.3954C202.323 66.5204 202.063 65.6714 201.714 64.8485C201.37 64.0256 200.948 63.2391 200.448 62.4996C199.954 61.7548 199.386 61.0673 198.756 60.4371C198.125 59.8016 197.438 59.2391 196.698 58.7391C195.959 58.2391 195.172 57.8121 194.349 57.4683C193.526 57.1194 192.678 56.8537 191.803 56.6714C190.933 56.4891 190.047 56.3902 189.151 56.3798C188.261 56.3641 187.375 56.4423 186.495 56.6037C185.615 56.76 184.761 57.0048 183.928 57.3329C183.094 57.661 182.303 58.0621 181.553 58.5412C180.797 59.0256 180.094 59.5725 179.448 60.1871L122.657 117.005C122.016 117.651 121.438 118.349 120.933 119.104C120.428 119.859 120.006 120.656 119.657 121.494C119.308 122.333 119.047 123.197 118.87 124.088C118.693 124.979 118.605 125.88 118.605 126.786C118.605 127.697 118.693 128.599 118.87 129.489C119.047 130.38 119.308 131.244 119.657 132.083C120.006 132.921 120.428 133.718 120.933 134.474C121.438 135.229 122.016 135.927 122.657 136.567H122.615ZM189.261 60.9527C189.844 60.9527 190.428 61.01 191 61.1246C191.579 61.2391 192.136 61.411 192.678 61.635C193.224 61.8589 193.735 62.135 194.224 62.4631C194.714 62.786 195.167 63.1558 195.579 63.5725C195.995 63.9891 196.365 64.4423 196.693 64.9266C197.016 65.4162 197.292 65.9319 197.516 66.4735C197.745 67.0152 197.912 67.5777 198.026 68.1506C198.141 68.7287 198.198 69.3121 198.198 69.8954C198.198 70.4839 198.141 71.0673 198.026 71.6402C197.912 72.2183 197.745 72.7756 197.516 73.3173C197.292 73.8641 197.016 74.3798 196.693 74.8641C196.365 75.3537 195.995 75.8069 195.579 76.2235C195.167 76.635 194.714 77.01 194.224 77.3329C193.735 77.661 193.224 77.9371 192.678 78.161C192.136 78.385 191.579 78.5569 191 78.6714C190.428 78.786 189.844 78.8433 189.261 78.8433C188.672 78.8433 188.089 78.786 187.516 78.6714C186.938 78.5569 186.381 78.385 185.839 78.161C185.297 77.9371 184.782 77.661 184.292 77.3329C183.803 77.01 183.355 76.635 182.938 76.2235C182.521 75.8069 182.151 75.3537 181.823 74.8641C181.5 74.3798 181.224 73.8641 181 73.3173C180.776 72.7756 180.605 72.2183 180.49 71.6402C180.375 71.0673 180.318 70.4839 180.318 69.8954C180.323 69.3069 180.381 68.7287 180.495 68.1506C180.61 67.5777 180.782 67.0152 181.011 66.4735C181.235 65.9319 181.511 65.4162 181.839 64.9266C182.167 64.4371 182.537 63.9839 182.954 63.5725C183.365 63.1558 183.818 62.786 184.308 62.4579C184.797 62.1298 185.308 61.8537 185.855 61.6298C186.396 61.4006 186.954 61.2287 187.532 61.1141C188.105 60.9996 188.688 60.9371 189.276 60.9371L189.261 60.9527ZM126.011 120.395L175.547 70.8746C175.605 71.6975 175.74 72.5048 175.943 73.3069C176.146 74.1037 176.417 74.8798 176.761 75.6298C177.105 76.3798 177.511 77.0933 177.985 77.7704C178.454 78.4475 178.985 79.0725 179.568 79.6558C180.151 80.2391 180.782 80.7652 181.464 81.2339C182.141 81.6975 182.855 82.1037 183.605 82.4423C184.355 82.786 185.131 83.0516 185.933 83.2548C186.73 83.4579 187.542 83.5829 188.365 83.6402L138.787 133.234C138.37 133.656 137.912 134.031 137.417 134.364C136.922 134.692 136.401 134.974 135.849 135.197C135.303 135.427 134.735 135.599 134.151 135.713C133.568 135.828 132.98 135.885 132.386 135.885C131.792 135.885 131.204 135.828 130.62 135.713C130.037 135.599 129.469 135.427 128.922 135.197C128.37 134.968 127.849 134.687 127.355 134.359C126.86 134.031 126.407 133.651 125.985 133.234C125.563 132.812 125.188 132.354 124.86 131.859C124.526 131.364 124.25 130.843 124.021 130.291C123.797 129.744 123.625 129.177 123.506 128.593C123.391 128.01 123.334 127.421 123.334 126.828C123.334 126.229 123.391 125.64 123.511 125.057C123.625 124.474 123.797 123.911 124.026 123.359C124.25 122.812 124.532 122.286 124.86 121.796C125.193 121.302 125.568 120.843 125.99 120.421L126.011 120.395ZM106.891 152.343C106.245 151.703 105.547 151.125 104.797 150.619C104.042 150.114 103.245 149.687 102.407 149.343C101.568 148.994 100.704 148.729 99.813 148.552C98.9223 148.375 98.0213 148.286 97.1098 148.286C96.2036 148.286 95.3025 148.375 94.4119 148.552C93.5213 148.729 92.6567 148.994 91.8182 149.343C90.9796 149.687 90.1827 150.114 89.4275 150.619C88.6775 151.125 87.9796 151.703 87.3338 152.343L31.6463 208.046C31.0057 208.692 30.4327 209.39 29.9275 210.145C29.4275 210.901 29.0004 211.697 28.6515 212.536C28.3077 213.375 28.0421 214.239 27.865 215.13C27.6932 216.02 27.6046 216.921 27.6046 217.828C27.6046 218.734 27.6932 219.635 27.8702 220.526C28.0473 221.416 28.3077 222.281 28.6567 223.119C29.0057 223.958 29.4275 224.755 29.9327 225.51C30.4379 226.265 31.0109 226.963 31.6515 227.604C32.2921 228.25 32.99 228.822 33.7452 229.328C34.5004 229.828 35.2973 230.255 36.1359 230.604C36.9744 230.953 37.839 231.213 38.7296 231.39C39.6202 231.567 40.5161 231.656 41.4275 231.656C42.3338 231.656 43.2348 231.567 44.1254 231.39C45.0109 231.213 45.8754 230.953 46.714 230.604C47.5525 230.26 48.3494 229.833 49.1046 229.328C49.8598 228.822 50.5577 228.25 51.2036 227.609L106.891 171.906C107.532 171.265 108.105 170.567 108.61 169.812C109.115 169.057 109.542 168.26 109.891 167.421C110.24 166.578 110.5 165.713 110.678 164.822C110.855 163.932 110.943 163.031 110.943 162.125C110.943 161.218 110.855 160.317 110.678 159.427C110.5 158.536 110.24 157.671 109.891 156.833C109.542 155.989 109.115 155.192 108.61 154.437C108.105 153.682 107.532 152.984 106.891 152.343ZM97.1359 153.083C98.0421 153.083 98.9223 153.218 99.7869 153.489H99.865C100.12 153.572 100.365 153.661 100.599 153.76L100.756 153.833L101.386 154.13L101.558 154.239C101.75 154.354 101.948 154.463 102.136 154.588L102.308 154.718C102.485 154.838 102.662 154.968 102.834 155.109L102.974 155.239C103.313 155.531 103.636 155.849 103.933 156.187L104.063 156.338C104.198 156.505 104.329 156.687 104.454 156.864C104.5 156.921 104.542 156.979 104.584 157.041C104.709 157.229 104.823 157.416 104.933 157.614C104.933 157.671 105.006 157.724 105.037 157.791C105.146 157.994 105.25 158.203 105.339 158.416L105.412 158.578C105.516 158.817 105.599 159.057 105.678 159.302V159.385C105.86 159.984 105.98 160.593 106.037 161.213C106.089 161.833 106.079 162.453 106.006 163.072C105.933 163.692 105.792 164.302 105.589 164.89C105.391 165.479 105.131 166.046 104.808 166.583C104.49 167.119 104.12 167.614 103.698 168.072C103.271 168.531 102.808 168.942 102.297 169.302C101.787 169.661 101.245 169.968 100.672 170.213C100.099 170.463 99.5109 170.645 98.8963 170.77C98.2869 170.895 97.6671 170.953 97.0421 170.947C96.4223 170.942 95.8025 170.869 95.1932 170.734C94.5838 170.599 93.9952 170.401 93.4275 170.145C92.8598 169.885 92.3286 169.572 91.8234 169.203C91.3234 168.833 90.865 168.411 90.4484 167.947C90.0369 167.479 89.6723 166.974 89.365 166.432C89.0525 165.89 88.8077 165.322 88.615 164.729C88.4275 164.135 88.2973 163.526 88.2348 162.906C88.1723 162.281 88.1775 161.661 88.24 161.041C88.3077 160.421 88.438 159.812 88.6359 159.224C88.8286 158.63 89.0786 158.062 89.3911 157.52C89.7088 156.979 90.0734 156.479 90.49 156.015C90.9067 155.552 91.3702 155.135 91.8702 154.77C92.3755 154.401 92.9119 154.093 93.4848 153.838C94.0525 153.583 94.6411 153.39 95.2557 153.26C95.865 153.125 96.4796 153.062 97.1046 153.057L97.1359 153.083ZM47.8286 224.234C47.4067 224.656 46.9536 225.031 46.4588 225.364C45.964 225.692 45.4379 225.974 44.8911 226.197C44.3442 226.427 43.7765 226.599 43.1932 226.713C42.6098 226.828 42.0213 226.885 41.4275 226.885C40.8338 226.885 40.2452 226.828 39.6619 226.713C39.0786 226.599 38.5109 226.427 37.9588 226.197C37.4119 225.968 36.8911 225.687 36.3963 225.359C35.9015 225.026 35.4432 224.651 35.0265 224.234C34.6046 223.812 34.2296 223.354 33.9015 222.859C33.5682 222.364 33.2921 221.843 33.0629 221.291C32.8338 220.744 32.6619 220.177 32.5473 219.593C32.4327 219.01 32.3754 218.421 32.3754 217.828C32.3754 217.229 32.4327 216.64 32.5473 216.057C32.6671 215.474 32.839 214.911 33.0629 214.359C33.2921 213.812 33.5734 213.286 33.9015 212.796C34.2348 212.302 34.6098 211.843 35.0265 211.421L83.4484 162.979C83.5057 163.802 83.6359 164.614 83.839 165.411C84.0421 166.213 84.3182 166.984 84.6567 167.734C85.0004 168.484 85.4067 169.197 85.8807 169.875C86.3494 170.557 86.8755 171.182 87.4588 171.765C88.0421 172.349 88.6723 172.875 89.3494 173.343C90.0265 173.812 90.7452 174.218 91.4952 174.562C92.2452 174.901 93.0213 175.171 93.8182 175.375C94.615 175.578 95.4275 175.703 96.2505 175.76L47.8286 224.234Z" fill="black"/>
</g>
<path d="M289.635 87.6406V140.422H289.938C290.885 137.615 292.297 135.062 294.172 132.766C296.026 130.51 298.177 128.589 300.625 127.005C303.073 125.417 305.703 124.24 308.516 123.474C311.385 122.672 314.307 122.276 317.286 122.276C321.172 122.177 324.964 122.719 328.667 123.901C331.505 124.823 334.057 126.26 336.318 128.214C338.25 129.932 339.812 131.938 341 134.234C342.104 136.385 342.917 138.641 343.438 141C343.917 143.182 344.214 145.391 344.323 147.62C344.422 149.75 344.479 151.615 344.479 153.198V200.484H338.792V152.182C338.792 150.297 338.646 147.922 338.354 145.042C338.042 142.115 337.172 139.365 335.75 136.792C334.146 133.974 331.969 131.719 329.208 130.016C326.281 128.135 322.245 127.193 317.089 127.193C313.078 127.13 309.245 127.922 305.583 129.568C302.219 131.141 299.344 133.344 296.958 136.188C294.479 139.193 292.672 142.563 291.542 146.297C290.25 150.484 289.63 154.771 289.677 159.156V200.5H284.031V87.6406H289.635Z" fill="black"/>
<path d="M377.344 109.641V92.8906H382.995V109.641H377.344ZM377.344 200.5V124.073H382.995V200.5H377.344Z" fill="black"/>
<path d="M444.979 200.499H437.989L407.224 124.072H413.765L441.396 193.999H441.698L467.557 124.072H473.817L444.979 200.499Z" fill="black"/>
<path d="M498.792 163.026V163.921C498.771 168.27 499.365 172.536 500.578 176.713C501.682 180.609 503.448 184.177 505.87 187.421C508.229 190.541 511.162 192.984 514.662 194.739C518.547 196.614 522.646 197.505 526.958 197.411C534.615 197.411 540.677 195.406 545.151 191.385C549.62 187.369 552.698 181.796 554.391 174.661H560.078C558.386 183.578 554.745 190.421 549.156 195.187C543.563 199.947 536.156 202.328 526.927 202.322C521.766 202.442 516.833 201.427 512.136 199.276C507.979 197.307 504.458 194.531 501.573 190.947C498.62 187.208 496.516 183.041 495.25 178.453C493.818 173.369 493.125 168.192 493.167 162.911C493.146 157.677 493.865 152.546 495.323 147.52C496.667 142.796 498.833 138.479 501.823 134.578C504.745 130.791 508.339 127.807 512.599 125.635C514.901 124.562 517.287 123.744 519.761 123.182C522.235 122.619 524.74 122.317 527.276 122.286C529.813 122.255 532.328 122.489 534.813 122.989C537.302 123.489 539.708 124.25 542.037 125.26C546.089 127.192 549.537 129.901 552.365 133.39C555.219 136.958 557.328 140.921 558.682 145.286C560.13 150 560.828 154.828 560.776 159.76C560.776 160.26 560.755 160.828 560.703 161.468C560.656 162.104 560.63 162.625 560.63 163.026H498.792ZM554.985 158.151C554.813 154.114 554.115 150.177 552.896 146.328C551.771 142.713 550.005 139.442 547.604 136.515C545.25 133.661 542.417 131.406 539.11 129.75C535.521 127.994 531.729 127.151 527.735 127.218C523.5 127.135 519.474 128 515.656 129.822C512.25 131.494 509.323 133.77 506.86 136.661C504.401 139.588 502.557 142.864 501.328 146.489C500.031 150.25 499.235 154.114 498.938 158.083L554.985 158.151Z" fill="black"/>
<path d="M590.036 87.6406H595.724V200.5H590.036V87.6406Z" fill="black"/>
<path d="M629.859 87.6406H635.547V200.5H629.859V87.6406Z" fill="black"/>
<mask id="mask1_3297_29521" style="mask-type:luminance" maskUnits="userSpaceOnUse" x="664" y="121" width="71" height="82">
<path d="M664 121.334H735V202.667H664V121.334Z" fill="white"/>
</mask>
<g mask="url(#mask1_3297_29521)">
<path d="M664.807 162.288C664.77 157.038 665.536 151.902 667.104 146.892C668.557 142.225 670.812 137.991 673.875 134.178C676.895 130.46 680.557 127.564 684.869 125.48C687.234 124.423 689.682 123.626 692.208 123.09C694.739 122.548 697.296 122.277 699.885 122.277C702.474 122.277 705.031 122.548 707.562 123.09C710.093 123.626 712.541 124.423 714.901 125.48C719.218 127.564 722.885 130.46 725.906 134.178C728.958 137.991 731.213 142.225 732.666 146.892C734.239 151.902 735.005 157.038 734.968 162.288C735 167.559 734.234 172.704 732.666 177.736C731.234 182.413 728.979 186.652 725.906 190.454C722.864 194.132 719.198 197.007 714.901 199.079C712.536 200.137 710.093 200.928 707.562 201.47C705.031 202.007 702.474 202.277 699.885 202.277C697.302 202.277 694.739 202.007 692.213 201.47C689.682 200.928 687.234 200.137 684.869 199.079C680.578 197.007 676.911 194.132 673.875 190.454C670.791 186.652 668.536 182.418 667.104 177.736C665.541 172.704 664.776 167.559 664.807 162.288ZM670.494 162.288C670.479 166.772 671.125 171.158 672.427 175.444C673.651 179.527 675.546 183.272 678.119 186.673C680.593 189.954 683.645 192.553 687.286 194.465C689.255 195.413 691.307 196.137 693.437 196.626C695.573 197.111 697.729 197.355 699.916 197.355C702.104 197.355 704.265 197.111 706.401 196.626C708.531 196.137 710.583 195.413 712.552 194.465C716.208 192.548 719.281 189.944 721.77 186.647C724.312 183.251 726.182 179.517 727.385 175.444C728.671 171.152 729.317 166.767 729.317 162.283C729.317 157.803 728.671 153.418 727.385 149.126C726.171 145.043 724.291 141.303 721.734 137.897C719.25 134.6 716.182 131.996 712.52 130.09C710.552 129.137 708.5 128.413 706.369 127.923C704.234 127.434 702.073 127.189 699.885 127.189C697.698 127.189 695.536 127.434 693.406 127.923C691.27 128.413 689.224 129.137 687.255 130.09C683.593 131.996 680.52 134.6 678.036 137.897C675.468 141.298 673.573 145.043 672.349 149.126C671.067 153.418 670.453 157.809 670.494 162.288Z" fill="black"/>
</g>
</svg>
